<svg id="Layer_1" data-name="Layer 1" xmlns="http://www.w3.org/2000/svg" viewBox="0 0 512 512"><defs><style>.cls-1{fill:#08c;}.cls-2{fill:#303757;}</style></defs><path class="cls-1" d="M256,394c-76.09,0-138-61.91-138-138s61.91-138,138-138,138,61.91,138,138S332.09,394,256,394Zm0-264A126,126,0,1,0,382,256,126.14,126.14,0,0,0,256,130Z"/><path class="cls-2" d="M309,218.93c-2.86-5-8.49-7.83-15.45-7.83h-75c-7,0-12.58,2.85-15.46,7.83s-2.51,11.27,1,17.3l46.89,81.71a5.91,5.91,0,0,0,10.24,0L308,236.22C311.48,230.19,311.83,223.89,309,218.93Zm-95.72,5.89c1-1.73,4-1.92,5.24-1.92H250.1v70l-35.87-62.51C213.6,229.26,212.26,226.55,213.25,224.82Zm84.53,5.53-35.88,62.5v-70h31.62c1.24,0,4.23.19,5.22,1.91S298.4,229.27,297.78,230.35Z"/></svg>