<svg width="732" height="276" viewBox="0 0 732 276" fill="none" xmlns="http://www.w3.org/2000/svg">
<path d="M138 276C61.91 276 0 214.09 0 138C0 61.91 61.91 0 138 0C214.09 0 276 61.91 276 138C276 214.09 214.09 276 138 276ZM138 12C113.08 12 88.7187 19.3898 67.9982 33.2348C47.2776 47.0799 31.1278 66.7584 21.5912 89.7819C12.0545 112.805 9.55931 138.14 14.4211 162.581C19.2828 187.023 31.2831 209.474 48.9045 227.095C66.526 244.717 88.977 256.717 113.419 261.579C137.86 266.441 163.195 263.945 186.218 254.409C209.242 244.872 228.92 228.722 242.765 208.002C256.61 187.281 264 162.92 264 138C263.963 104.594 250.676 72.567 227.055 48.9455C203.433 25.3239 171.406 12.0371 138 12Z" fill="white"/>
<path d="M191.84 99.76C188.93 94.7 183.2 91.76 176.13 91.76H99.88C92.82 91.76 87.09 94.66 84.16 99.76C81.23 104.86 81.62 111.22 85.16 117.34L132.82 200.34C133.346 201.254 134.104 202.013 135.017 202.541C135.93 203.069 136.965 203.347 138.02 203.347C139.075 203.347 140.11 203.069 141.023 202.541C141.936 202.013 142.694 201.254 143.22 200.34L190.89 117.34C194.38 111.21 194.74 104.8 191.84 99.76ZM94.56 105.76C95.56 104 98.62 103.81 99.88 103.81H132V174.9L95.54 111.37C94.91 110.26 93.55 107.51 94.56 105.75V105.76ZM180.46 111.38L144 174.89V103.8H176.13C177.39 103.8 180.43 103.99 181.44 105.74C182.45 107.49 181.09 110.27 180.46 111.37V111.38Z" fill="white"/>
<path d="M430.35 196.27V107H396V83.11H494.39V107H460V196.24L430.35 196.27Z" fill="white"/>
<path d="M500.13 139.61C500.13 127.837 502.43 117.59 507.03 108.87C511.472 100.311 518.338 93.2499 526.77 88.57C535.33 83.75 545.443 81.3433 557.11 81.35C568.877 81.35 579.043 83.7567 587.61 88.57C596.049 93.2667 602.937 100.321 607.43 108.87C612.097 117.597 614.43 127.843 614.43 139.61C614.43 151.27 612.097 161.487 607.43 170.26C602.943 178.857 596.058 185.968 587.61 190.73C579.037 195.603 568.87 198.037 557.11 198.03C545.45 198.03 535.363 195.597 526.85 190.73C518.436 185.951 511.581 178.842 507.11 170.26C502.463 161.493 500.137 151.277 500.13 139.61ZM531.13 139.61C530.975 145.781 531.947 151.928 534 157.75C535.625 162.38 538.617 166.408 542.58 169.3C546.38 171.967 551.223 173.3 557.11 173.3C565.877 173.3 572.457 170.333 576.85 164.4C581.243 158.467 583.437 150.2 583.43 139.6C583.579 133.428 582.599 127.28 580.54 121.46C578.907 116.815 575.848 112.804 571.8 110C567.887 107.38 562.99 106.067 557.11 106.06C548.33 106.06 541.803 108.977 537.53 114.81C533.257 120.643 531.117 128.91 531.11 139.61H531.13Z" fill="white"/>
<path d="M704.55 83.11V148.44L651.91 83.11H630.08V196.27H657.85V130.97L710.17 196.27H732V83.11H704.55Z" fill="white"/>
</svg>
